<?xml version="1.0" encoding="UTF-8" standalone="no"?>
<svg
   version="1.1"
   viewBox="0 0 489.977 489.977"
   enable-background="new 0 0 489.977 489.977"
   id="svg55"
   sodipodi:docname="umbrella-svgrepo-com.svg"
   inkscape:version="1.1.2 (0a00cf5339, 2022-02-04, custom)"
   xmlns:inkscape="http://www.inkscape.org/namespaces/inkscape"
   xmlns:sodipodi="http://sodipodi.sourceforge.net/DTD/sodipodi-0.dtd"
   xmlns="http://www.w3.org/2000/svg"
   xmlns:svg="http://www.w3.org/2000/svg">
  <defs
     id="defs59" />
  <sodipodi:namedview
     id="namedview57"
     pagecolor="#ffffff"
     bordercolor="#666666"
     borderopacity="1.0"
     inkscape:pageshadow="2"
     inkscape:pageopacity="0.0"
     inkscape:pagecheckerboard="0"
     showgrid="false"
     inkscape:zoom="1.4330686"
     inkscape:cx="183.87117"
     inkscape:cy="236.55532"
     inkscape:window-width="1916"
     inkscape:window-height="1049"
     inkscape:window-x="0"
     inkscape:window-y="0"
     inkscape:window-maximized="1"
     inkscape:current-layer="svg55" />
  <g
     id="g53">
    <path
       d="m487.97,203.339c-40.2-100.9-130.1-166.6-232.8-170.8v-22.1c0-6.3-4.2-10.4-10.4-10.4s-10.4,4.2-10.4,10.4v22.1c-102.8,4.2-193.7,71-233.9,172.8-2.8,9.7 7.5,17.3 15.6,12.5 10.4-6.3 20.8-9.4 32.2-9.4 22.9,0 43.7,12.5 57.2,33.4 7,9.7 14.8,3.1 16.6,0 12.8-22 35.3-33.4 57.2-33.4 21.7,0 41.6,11.3 55.1,30.3v212.6c0,9.4-7.3,17.7-16.6,17.7s-16.6-8.3-16.6-17.7v-17.7c0-6.3-4.2-10.4-10.4-10.4s-10.4,4.2-10.4,10.4v17.7c0,20.9 16.6,38.6 37.4,38.6s37.4-17.7 37.4-38.6v-212.3c14.4-19.1 34.3-30.5 55.1-30.5 22.9,0 43.7,12.5 57.2,33.4 6.8,9.9 15.5,3.2 17.7,0 14.6-20.9 35.3-33.4 57.2-33.4 11.4,0 21.8,3.1 32.2,9.4 15.9,9.2 17.7-7.4 13.4-14.6zm-46.7-15.6c-24.9,0-47.8,11.5-65.5,31.3-17.7-19.8-40.5-31.3-65.5-31.3-24.9,0-47.8,11.5-65.5,31.3-17.7-19.8-40.5-31.3-65.5-31.3-24.9,0-47.8,11.5-65.5,31.3-17.7-19.8-40.5-31.3-65.5-31.3-6.2,0-11.4,1-17.7,2.1 41.6-83.5 123.7-136.6 214.2-136.6 90.4,0 172.6,53.2 214.1,136.6-6.2-1.1-11.4-2.1-17.6-2.1z"
       id="path51" />
  </g>
  <path
     style="fill:#005522;stroke-width:0.346754"
     d="m 372.76055,215.57971 c -15.07334,-15.85298 -34.75589,-25.72979 -55.13389,-27.6665 -5.20221,-0.49441 -14.24413,-0.23264 -19.41822,0.56217 -18.20462,2.79649 -35.15416,11.75568 -49.49955,26.1645 l -3.90139,3.91865 -4.76746,-4.65028 c -5.60703,-5.46922 -9.15262,-8.37796 -14.77474,-12.12094 -18.38716,-12.24142 -39.85474,-16.74417 -60.98278,-12.79093 -13.15918,2.46221 -26.87072,8.90847 -38.06406,17.89521 -1.62108,1.30151 -5.09338,4.4596 -7.71622,7.01798 l -4.76881,4.6516 -5.11368,-4.99855 c -7.9205,-7.74218 -14.973909,-12.84159 -23.892103,-17.27329 -11.034357,-5.48327 -21.469908,-8.13652 -33.754809,-8.58218 -5.752918,-0.20871 -11.105185,0.23161 -17.511077,1.44059 -1.335003,0.25195 -2.459798,0.42801 -2.499545,0.39123 -0.165595,-0.15321 6.106639,-11.56084 9.296299,-16.90765 C 71.51235,120.24069 120.46608,81.140533 176.49779,63.814749 c 53.49278,-16.540715 110.44239,-13.187578 161.76074,9.524313 45.35528,20.072821 84.88693,55.440728 110.93912,99.254188 2.43366,4.09281 9.2068,16.41868 9.20954,16.75965 0,0.10923 -2.22196,-0.19117 -4.93965,-0.66755 -4.26916,-0.74833 -6.00241,-0.86751 -12.74321,-0.87619 -6.55358,-0.008 -8.49554,0.11299 -12.1366,0.75887 -17.41395,3.08901 -31.52566,10.16268 -45.59794,22.85653 -2.09786,1.89237 -4.59449,4.2989 -5.54806,5.34784 l -1.73377,1.90717 z"
     id="path562" />
</svg>
