<?xml version="1.0" encoding="UTF-8" standalone="no"?>
<svg
   version="1.1"
   viewBox="0 0 489.977 489.977"
   enable-background="new 0 0 489.977 489.977"
   id="svg55"
   sodipodi:docname="umbrella-svgrepo-com.svg"
   inkscape:version="1.1.2 (0a00cf5339, 2022-02-04, custom)"
   xmlns:inkscape="http://www.inkscape.org/namespaces/inkscape"
   xmlns:sodipodi="http://sodipodi.sourceforge.net/DTD/sodipodi-0.dtd"
   xmlns="http://www.w3.org/2000/svg"
   xmlns:svg="http://www.w3.org/2000/svg">
  <defs
     id="defs59" />
  <sodipodi:namedview
     id="namedview57"
     pagecolor="#ffffff"
     bordercolor="#666666"
     borderopacity="1.0"
     inkscape:pageshadow="2"
     inkscape:pageopacity="0.0"
     inkscape:pagecheckerboard="0"
     showgrid="false"
     inkscape:zoom="1.4330686"
     inkscape:cx="183.87117"
     inkscape:cy="159.79696"
     inkscape:window-width="1916"
     inkscape:window-height="1049"
     inkscape:window-x="0"
     inkscape:window-y="0"
     inkscape:window-maximized="1"
     inkscape:current-layer="svg55" />
  <g
     id="g53">
    <path
       d="m487.97,203.339c-40.2-100.9-130.1-166.6-232.8-170.8v-22.1c0-6.3-4.2-10.4-10.4-10.4s-10.4,4.2-10.4,10.4v22.1c-102.8,4.2-193.7,71-233.9,172.8-2.8,9.7 7.5,17.3 15.6,12.5 10.4-6.3 20.8-9.4 32.2-9.4 22.9,0 43.7,12.5 57.2,33.4 7,9.7 14.8,3.1 16.6,0 12.8-22 35.3-33.4 57.2-33.4 21.7,0 41.6,11.3 55.1,30.3v212.6c0,9.4-7.3,17.7-16.6,17.7s-16.6-8.3-16.6-17.7v-17.7c0-6.3-4.2-10.4-10.4-10.4s-10.4,4.2-10.4,10.4v17.7c0,20.9 16.6,38.6 37.4,38.6s37.4-17.7 37.4-38.6v-212.3c14.4-19.1 34.3-30.5 55.1-30.5 22.9,0 43.7,12.5 57.2,33.4 6.8,9.9 15.5,3.2 17.7,0 14.6-20.9 35.3-33.4 57.2-33.4 11.4,0 21.8,3.1 32.2,9.4 15.9,9.2 17.7-7.4 13.4-14.6zm-46.7-15.6c-24.9,0-47.8,11.5-65.5,31.3-17.7-19.8-40.5-31.3-65.5-31.3-24.9,0-47.8,11.5-65.5,31.3-17.7-19.8-40.5-31.3-65.5-31.3-24.9,0-47.8,11.5-65.5,31.3-17.7-19.8-40.5-31.3-65.5-31.3-6.2,0-11.4,1-17.7,2.1 41.6-83.5 123.7-136.6 214.2-136.6 90.4,0 172.6,53.2 214.1,136.6-6.2-1.1-11.4-2.1-17.6-2.1z"
       id="path51" />
  </g>
  <path
     style="fill:#005522;stroke-width:0.346754"
     d="m 372.76055,215.57971 c -15.07334,-15.85298 -34.75589,-25.72979 -55.13389,-27.6665 -5.20221,-0.49441 -14.24413,-0.23264 -19.41822,0.56217 -18.20462,2.79649 -35.15416,11.75568 -49.49955,26.1645 l -3.90139,3.91865 -4.76746,-4.65028 c -5.60703,-5.46922 -9.15262,-8.37796 -14.77474,-12.12094 -18.38716,-12.24142 -39.85474,-16.74417 -60.98278,-12.79093 -13.15918,2.46221 -26.87072,8.90847 -38.06406,17.89521 -1.62108,1.30151 -5.09338,4.4596 -7.71622,7.01798 l -4.76881,4.6516 -5.11368,-4.99855 c -7.9205,-7.74218 -14.973909,-12.84159 -23.892103,-17.27329 -11.034357,-5.48327 -21.469908,-8.13652 -33.754809,-8.58218 -5.752918,-0.20871 -11.105185,0.23161 -17.511077,1.44059 -1.335003,0.25195 -2.459798,0.42801 -2.499545,0.39123 -0.165595,-0.15321 6.106639,-11.56084 9.296299,-16.90765 C 71.51235,120.24069 120.46608,81.140533 176.49779,63.814749 c 53.49278,-16.540715 110.44239,-13.187578 161.76074,9.524313 45.35528,20.072821 84.88693,55.440728 110.93912,99.254188 2.43366,4.09281 9.2068,16.41868 9.20954,16.75965 0,0.10923 -2.22196,-0.19117 -4.93965,-0.66755 -4.26916,-0.74833 -6.00241,-0.86751 -12.74321,-0.87619 -6.55358,-0.008 -8.49554,0.11299 -12.1366,0.75887 -17.41395,3.08901 -31.52566,10.16268 -45.59794,22.85653 -2.09786,1.89237 -4.59449,4.2989 -5.54806,5.34784 l -1.73377,1.90717 z"
     id="path562" />
  <path
     style="fill:#dbe3db;stroke-width:0.697803"
     d="m 212.6649,489.16088 c -15.26806,-2.68019 -27.25514,-14.0816 -30.85284,-29.34541 -1.60302,-6.80107 -1.50808,-27.38233 0.14123,-30.61684 1.89351,-3.7134 4.53667,-5.28313 8.89591,-5.28313 4.35924,0 7.0024,1.56973 8.89591,5.28313 1.01607,1.99263 1.22025,4.32629 1.22116,13.95661 0.001,13.66108 0.71373,16.54396 5.23932,21.20045 5.83586,6.00466 14.74352,6.64288 21.439,1.53607 1.6487,-1.25751 3.76811,-3.85092 4.86854,-5.95737 l 1.94878,-3.7304 V 347.14012 238.07625 l -2.6753,-3.37723 c -4.46816,-5.6405 -13.54239,-13.64971 -19.54308,-17.24935 -12.00305,-7.20028 -26.71982,-10.45935 -40.04466,-8.868 -19.99212,2.38762 -36.85543,12.76115 -48.39656,29.77134 -4.1744,6.15255 -6.52739,7.96054 -10.36852,7.96696 -2.42638,0.004 -3.1485,-0.42708 -6.12841,-3.65887 -1.85787,-2.01491 -5.35585,-6.17312 -7.773299,-9.24047 -13.193598,-16.74054 -35.255752,-26.75104 -55.440999,-25.15585 -8.477049,0.66992 -15.272464,2.64281 -24.079525,6.99091 -4.294054,2.12 -8.433735,3.84765 -9.199292,3.83922 -2.6462128,-0.0292 -7.2888812,-2.68593 -8.7429169,-5.00318 -2.51978794,-4.01571 -1.67237897,-8.24211 4.3104337,-21.49802 C 17.228927,168.55563 31.422344,145.94513 48.427171,125.61109 55.66381,116.95765 73.167139,99.577801 81.869437,92.404746 97.347838,79.64634 111.47288,70.28219 128.74471,61.328931 158.64747,45.828132 188.43526,37.02698 221.81987,33.828775 c 5.92503,-0.567611 11.19336,-1.03202 11.70741,-1.03202 0.7407,0 0.93808,-2.280389 0.95128,-10.990402 0.0202,-13.3667096 0.51756,-15.8493512 3.77414,-18.840689 2.13373,-1.9599431 2.96774,-2.26750657 6.14265,-2.26525224 2.4528,0.001745 4.44138,0.47063314 5.98358,1.41088604 3.76735,2.2968938 4.31927,4.6470431 4.31927,18.3919512 v 12.174433 l 5.40798,0.449785 c 26.03033,2.164961 44.49423,5.818503 65.37606,12.936285 71.78725,24.469403 128.36319,78.323108 159.93666,152.241098 4.24704,9.94291 4.89606,13.66129 3.11957,17.87263 -1.23533,2.92848 -4.30068,4.58384 -7.27958,3.93112 -1.21931,-0.26716 -5.51405,-2.13881 -9.54386,-4.15921 -12.97008,-6.50273 -23.5665,-8.66802 -35.69544,-7.29403 -18.93494,2.14498 -35.91487,12.73553 -49.59861,30.93514 -3.47268,4.61874 -6.78052,6.89373 -10.15201,6.98213 -3.78383,0.0992 -5.68762,-1.39902 -11.28914,-8.88431 -8.21205,-10.9737 -16.90275,-18.20542 -28.29265,-23.54291 -17.03511,-7.98291 -37.3399,-7.66031 -54.28355,0.86248 -7.95502,4.00143 -17.95422,12.09054 -23.98833,19.40597 l -3.7171,4.50641 v 108.57494 c 0,119.30084 0.25499,112.00417 -4.23667,121.23597 -6.73375,13.83998 -23.5516,22.93031 -37.79663,20.4297 z M 120.24012,213.12426 c 17.5793,-16.54841 36.98611,-24.72558 58.64906,-24.7121 9.82238,0.006 15.22349,0.74885 23.47378,3.228 12.79613,3.84514 24.43011,10.83913 36.41406,21.89099 l 6.18955,5.70814 6.46324,-6.17031 c 13.54628,-12.93232 29.8355,-21.29989 46.70188,-23.99018 8.58771,-1.3698 24.42471,-0.52275 32.62707,1.74504 7.92052,2.18989 18.77067,7.2425 25.88371,12.05333 5.37893,3.638 14.34952,11.36442 16.77623,14.44949 1.77094,2.25138 2.92582,2.25138 4.69675,0 2.42672,-3.08507 11.3973,-10.81149 16.77624,-14.44949 7.34157,-4.9654 18.34474,-10.03419 26.3462,-12.1368 8.63932,-2.27022 24.07173,-2.96387 32.5087,-1.46117 2.97439,0.52977 5.40798,0.85639 5.40798,0.72583 0,-0.62133 -5.24498,-10.5414 -8.47706,-16.03308 C 425.85672,131.79867 390.77345,98.744337 348.55275,77.75327 323.68251,65.388419 301.45872,58.545928 273.53889,54.657227 261.18736,52.936893 228.7349,52.937433 215.97012,54.658185 171.8089,60.611326 132.55013,77.4511 97.423082,105.50811 c -9.726778,7.76907 -31.580813,29.93417 -39.078736,39.63498 -6.891722,8.9165 -13.724315,18.93822 -19.029895,27.91213 -3.664231,6.19771 -9.308909,16.48114 -9.308909,16.95889 0,0.15254 2.276583,-0.13016 5.059074,-0.62823 7.027915,-1.25799 20.800298,-1.20677 27.705075,0.10304 16.12596,3.05904 31.710733,11.37649 44.665979,23.8378 3.27655,3.15164 6.06721,5.74223 6.20147,5.75688 0.13426,0.0147 3.1056,-2.66705 6.60298,-5.95934 z"
     id="path644" />
</svg>
